# xmcd
#
# Track frame offsets: 
#        150
#        19732
#        36661
#        54594
#        75482
#        97660
#        110752
#        128630
#        141073
#        156716
#
# Disc length: 2288 seconds
#
# Revision: 0
# Processed by: cddbd v1.5.1PL0 Copyright (c) Steve Scherf et al.
# Submitted via: ExactAudioCopy v0.95b3
#
DISCID=8208ee0a
DTITLE=Junior Tana and Dani Cavalcante - A musica que vem do Brasil
DYEAR=2005
DGENRE=Blues
TTITLE0=Samba Blues
TTITLE1=EU
TTITLE2=Lobsang
TTITLE3=Do Outro Lado do Sol
TTITLE4=A Saudade
TTITLE5=Blues dos Coracoes
TTITLE6=Nova Estrela
TTITLE7=Esse Desejo Meu
TTITLE8=Coisas De Amor
TTITLE9=Esse Desejo Meu (2000)
EXTD=
EXTT0=
EXTT1=
EXTT2=
EXTT3=
EXTT4=
EXTT5=
EXTT6=
EXTT7=
EXTT8=
EXTT9=
PLAYORDER=
